<?xml version="1.0" encoding="UTF-8" standalone="no"?>
<!DOCTYPE svg PUBLIC "-//W3C//DTD SVG 1.1//EN"
 "http://www.w3.org/Graphics/SVG/1.1/DTD/svg11.dtd">
<!-- Generated by graphviz version 2.36.0 (20140111.2315)
 -->
<!-- Title: G Pages: 1 -->
<svg width="996pt" height="626pt"
 viewBox="0.00 0.00 996.00 626.00" xmlns="http://www.w3.org/2000/svg" xmlns:xlink="http://www.w3.org/1999/xlink">
<g id="graph0" class="graph" transform="scale(1 1) rotate(0) translate(4 622)">
<title>Maidsafe NFS API Design</title>
<polygon fill="white" stroke="none" points="-4,4 -4,-622 992,-622 992,4 -4,4"/>
<!-- A0 -->
<g id="node1" class="node"><title>A0</title>
<polygon fill="none" stroke="black" points="499,-568.5 499,-617.5 715,-617.5 715,-568.5 499,-568.5"/>
<text text-anchor="middle" x="607" y="-605.5" font-family="Times,serif" font-size="10.00">Account</text>
<polyline fill="none" stroke="black" points="499,-598.5 715,-598.5 "/>
<text text-anchor="middle" x="607" y="-586.5" font-family="Times,serif" font-size="10.00">shared_ptr&lt;detail::NetworkInterface&gt;</text>
<text text-anchor="middle" x="607" y="-575.5" font-family="Times,serif" font-size="10.00">Container</text>
</g>
<!-- A2 -->
<g id="node3" class="node"><title>A2</title>
<polygon fill="none" stroke="black" points="500,-424 500,-462 678,-462 678,-424 500,-424"/>
<text text-anchor="middle" x="589" y="-450" font-family="Times,serif" font-size="10.00">Container</text>
<polyline fill="none" stroke="black" points="500,-443 678,-443 "/>
<text text-anchor="middle" x="589" y="-431" font-family="Times,serif" font-size="10.00">shared_ptr&lt;detail::Container&gt;</text>
</g>
<!-- A0&#45;&gt;A2 -->
<g id="edge2" class="edge"><title>A0&#45;&gt;A2</title>
<path fill="none" stroke="black" d="M602.654,-556.264C599.039,-526.542 594.042,-485.458 591.204,-462.122"/>
<polygon fill="black" stroke="black" points="602.659,-556.309 607.354,-561.782 604.108,-568.221 599.413,-562.748 602.659,-556.309"/>
<text text-anchor="middle" x="601.783" y="-476.595" font-family="Times,serif" font-size="10.00">1</text>
</g>
<!-- A10 -->
<g id="node11" class="node"><title>A10</title>
<polygon fill="none" stroke="black" points="704,-125 704,-161 852,-161 852,-125 704,-125"/>
<text text-anchor="middle" x="778" y="-140.5" font-family="Times,serif" font-size="10.00">detail::NetworkInterface</text>
</g>
<!-- A0&#45;&gt;A10 -->
<g id="edge1" class="edge"><title>A0&#45;&gt;A10</title>
<path fill="none" stroke="black" d="M639.965,-559.323C655.928,-541.85 674.157,-519.194 686,-496 746.896,-376.74 770.026,-213.606 776.178,-161.052"/>
<polygon fill="none" stroke="black" points="639.595,-559.716 638.406,-566.829 631.384,-568.467 632.573,-561.355 639.595,-559.716"/>
<text text-anchor="middle" x="782.307" y="-177.589" font-family="Times,serif" font-size="10.00">1</text>
</g>
<!-- A1 -->
<g id="node2" class="node"><title>A1</title>
<polygon fill="none" stroke="black" points="309,-1 309,-39 395,-39 395,-1 309,-1"/>
<text text-anchor="middle" x="352" y="-27" font-family="Times,serif" font-size="10.00">BlobVersion</text>
<polyline fill="none" stroke="black" points="309,-20 395,-20 "/>
<text text-anchor="middle" x="352" y="-8" font-family="Times,serif" font-size="10.00">SHA512</text>
</g>
<!-- A6 -->
<g id="node7" class="node"><title>A6</title>
<polygon fill="none" stroke="black" points="384,-246.5 384,-317.5 716,-317.5 716,-246.5 384,-246.5"/>
<text text-anchor="middle" x="550" y="-305.5" font-family="Times,serif" font-size="10.00">detail::Container</text>
<polyline fill="none" stroke="black" points="384,-298.5 716,-298.5 "/>
<text text-anchor="middle" x="550" y="-286.5" font-family="Times,serif" font-size="10.00">shared_ptr&lt;detail::NetworkInterface&gt;</text>
<text text-anchor="middle" x="550" y="-275.5" font-family="Times,serif" font-size="10.00">vector&lt;ContainerVersion&gt;</text>
<text text-anchor="middle" x="550" y="-264.5" font-family="Times,serif" font-size="10.00">unordered_map&lt;BlobVersion, detail::Blob&gt;</text>
<text text-anchor="middle" x="550" y="-253.5" font-family="Times,serif" font-size="10.00">unordered_map&lt;ContainerVersion, detail::ContainerInstance&gt;</text>
</g>
<!-- A2&#45;&gt;A6 -->
<g id="edge3" class="edge"><title>A2&#45;&gt;A6</title>
<path fill="none" stroke="black" d="M581.656,-412.06C575.081,-385.254 565.439,-345.943 558.526,-317.758"/>
<polygon fill="none" stroke="black" points="581.667,-412.106 586.982,-416.981 584.526,-423.761 579.212,-418.886 581.667,-412.106"/>
<text text-anchor="middle" x="571.053" y="-330.849" font-family="Times,serif" font-size="10.00">1</text>
</g>
<!-- A3 -->
<g id="node4" class="node"><title>A3</title>
<polygon fill="none" stroke="black" points="380,-125 380,-161 492,-161 492,-125 380,-125"/>
<text text-anchor="middle" x="436" y="-140.5" font-family="Times,serif" font-size="10.00">ContainerVersion</text>
</g>
<!-- A4 -->
<g id="node5" class="node"><title>A4</title>
<polygon fill="none" stroke="black" points="510,-113 510,-173 686,-173 686,-113 510,-113"/>
<text text-anchor="middle" x="598" y="-161" font-family="Times,serif" font-size="10.00">detail::Blob</text>
<polyline fill="none" stroke="black" points="510,-154 686,-154 "/>
<text text-anchor="middle" x="598" y="-142" font-family="Times,serif" font-size="10.00">Metadata</text>
<text text-anchor="middle" x="598" y="-131" font-family="Times,serif" font-size="10.00">Datamap</text>
<text text-anchor="middle" x="598" y="-120" font-family="Times,serif" font-size="10.00">weak_ptr&lt;detail::BlobBuffer&gt;</text>
</g>
<!-- A5 -->
<g id="node6" class="node"><title>A5</title>
<polygon fill="none" stroke="black" points="701,-1 701,-39 815,-39 815,-1 701,-1"/>
<text text-anchor="middle" x="758" y="-27" font-family="Times,serif" font-size="10.00">detail::BlobBuffer</text>
<polyline fill="none" stroke="black" points="701,-20 815,-20 "/>
<text text-anchor="middle" x="758" y="-8" font-family="Times,serif" font-size="10.00">DataBuffer</text>
</g>
<!-- A4&#45;&gt;A5 -->
<g id="edge4" class="edge"><title>A4&#45;&gt;A5</title>
<path fill="none" stroke="black" d="M646.663,-105.199C675.593,-83.3207 711.016,-56.5314 734.025,-39.1313"/>
<polygon fill="none" stroke="black" points="646.303,-105.471 643.93,-112.281 636.732,-112.709 639.104,-105.9 646.303,-105.471"/>
<text text-anchor="middle" x="724.666" y="-54.3063" font-family="Times,serif" font-size="10.00">1</text>
</g>
<!-- A6&#45;&gt;A1 -->
<g id="edge6" class="edge"><title>A6&#45;&gt;A1</title>
<path fill="none" stroke="black" d="M447.555,-240.679C418.36,-224.281 389.492,-202.362 371,-174 343.662,-132.072 346.125,-69.7595 349.439,-39.2154"/>
<polygon fill="none" stroke="black" points="447.744,-240.781 454.923,-240.106 458.308,-246.473 451.128,-247.148 447.744,-240.781"/>
<text text-anchor="middle" x="356.17" y="-55.5488" font-family="Times,serif" font-size="10.00">0..</text>
</g>
<!-- A6&#45;&gt;A3 -->
<g id="edge8" class="edge"><title>A6&#45;&gt;A3</title>
<path fill="none" stroke="black" d="M513.529,-237.17C491.988,-211.284 465.932,-179.971 450.179,-161.04"/>
<polygon fill="none" stroke="black" points="513.557,-237.205 520.47,-239.258 521.233,-246.429 514.32,-244.376 513.557,-237.205"/>
<text text-anchor="middle" x="468.27" y="-167.066" font-family="Times,serif" font-size="10.00">1..</text>
</g>
<!-- A6&#45;&gt;A4 -->
<g id="edge5" class="edge"><title>A6&#45;&gt;A4</title>
<path fill="none" stroke="black" d="M566.087,-235.086C573.274,-214.573 581.526,-191.019 587.839,-173.002"/>
<polygon fill="none" stroke="black" points="566.08,-235.104 567.871,-242.089 562.112,-246.429 560.321,-239.444 566.08,-235.104"/>
<text text-anchor="middle" x="589.822" y="-190.403" font-family="Times,serif" font-size="10.00">0..</text>
</g>
<!-- A7 -->
<g id="node8" class="node"><title>A7</title>
<polygon fill="none" stroke="black" points="-0.5,-124 -0.5,-162 324.5,-162 324.5,-124 -0.5,-124"/>
<text text-anchor="middle" x="162" y="-150" font-family="Times,serif" font-size="10.00">detail::ContainerInstance</text>
<polyline fill="none" stroke="black" points="-0.5,-143 324.5,-143 "/>
<text text-anchor="middle" x="162" y="-131" font-family="Times,serif" font-size="10.00">unordered_map&lt;string, variant&lt;BlobVersion, DirectoryId&gt;&gt;</text>
</g>
<!-- A6&#45;&gt;A7 -->
<g id="edge7" class="edge"><title>A6&#45;&gt;A7</title>
<path fill="none" stroke="black" d="M440.32,-242.273C365.816,-215.966 270.713,-182.386 213.179,-162.071"/>
<polygon fill="none" stroke="black" points="440.776,-242.434 447.765,-240.66 452.091,-246.429 445.102,-248.203 440.776,-242.434"/>
<text text-anchor="middle" x="233.086" y="-157.636" font-family="Times,serif" font-size="10.00">1..</text>
</g>
<!-- A6&#45;&gt;A10 -->
<g id="edge9" class="edge"><title>A6&#45;&gt;A10</title>
<path fill="none" stroke="black" d="M617.885,-240.209C661.878,-213.775 716.892,-180.719 749.642,-161.04"/>
<polygon fill="none" stroke="black" points="617.82,-240.248 614.737,-246.767 607.534,-246.429 610.617,-239.91 617.82,-240.248"/>
<text text-anchor="middle" x="738.458" y="-175.121" font-family="Times,serif" font-size="10.00">1</text>
</g>
<!-- A7&#45;&gt;A1 -->
<g id="edge10" class="edge"><title>A7&#45;&gt;A1</title>
<path fill="none" stroke="black" d="M200.708,-117.349C237.2,-94.1093 291.027,-59.8304 323.671,-39.0409"/>
<polygon fill="none" stroke="black" points="200.567,-117.439 197.654,-124.036 190.445,-123.885 193.357,-117.288 200.567,-117.439"/>
<text text-anchor="middle" x="312.923" y="-53.407" font-family="Times,serif" font-size="10.00">0..</text>
</g>
<!-- A8 -->
<g id="node9" class="node"><title>A8</title>
<polygon fill="none" stroke="black" points="772,-391 772,-495 988,-495 988,-391 772,-391"/>
<text text-anchor="middle" x="880" y="-483" font-family="Times,serif" font-size="10.00">detail::LocalBlob</text>
<polyline fill="none" stroke="black" points="772,-476 988,-476 "/>
<text text-anchor="middle" x="880" y="-464" font-family="Times,serif" font-size="10.00">shared_ptr&lt;detail::NetworkInterface&gt;</text>
<text text-anchor="middle" x="880" y="-453" font-family="Times,serif" font-size="10.00">shared_ptr&lt;detail::Container&gt;</text>
<text text-anchor="middle" x="880" y="-442" font-family="Times,serif" font-size="10.00">shared_ptr&lt;detail::BlobBuffer&gt;</text>
<text text-anchor="middle" x="880" y="-431" font-family="Times,serif" font-size="10.00">DataMap</text>
<text text-anchor="middle" x="880" y="-420" font-family="Times,serif" font-size="10.00">Metadata</text>
<text text-anchor="middle" x="880" y="-409" font-family="Times,serif" font-size="10.00">SelfEncryptor</text>
<text text-anchor="middle" x="880" y="-398" font-family="Times,serif" font-size="10.00">BlobVersion</text>
</g>
<!-- A8&#45;&gt;A1 -->
<g id="edge11" class="edge"><title>A8&#45;&gt;A1</title>
<path fill="none" stroke="black" d="M885.269,-378.716C890.863,-294.043 894.804,-150.102 861,-112 799.562,-42.7509 506.732,-26.0172 395.237,-22.1286"/>
<polygon fill="none" stroke="black" points="885.264,-378.788 888.84,-385.05 884.436,-390.759 880.859,-384.498 885.264,-378.788"/>
<text text-anchor="middle" x="413.697" y="-11.9326" font-family="Times,serif" font-size="10.00">1</text>
</g>
<!-- A8&#45;&gt;A5 -->
<g id="edge12" class="edge"><title>A8&#45;&gt;A5</title>
<path fill="none" stroke="black" d="M900.636,-379.328C919.668,-309.659 938.818,-195.915 894,-112 875.53,-77.4186 837.453,-53.6767 806.275,-39.137"/>
<polygon fill="none" stroke="black" points="900.611,-379.415 902.828,-386.277 897.347,-390.962 895.13,-384.101 900.611,-379.415"/>
<text text-anchor="middle" x="826.272" y="-36.9684" font-family="Times,serif" font-size="10.00">1</text>
</g>
<!-- A8&#45;&gt;A6 -->
<g id="edge13" class="edge"><title>A8&#45;&gt;A6</title>
<path fill="none" stroke="black" d="M762.865,-385.562C715.724,-362.849 662.876,-337.386 621.631,-317.513"/>
<polygon fill="none" stroke="black" points="762.959,-385.607 770.1,-384.608 773.769,-390.816 766.628,-391.815 762.959,-385.607"/>
<text text-anchor="middle" x="641.629" y="-315.266" font-family="Times,serif" font-size="10.00">1</text>
</g>
<!-- A8&#45;&gt;A10 -->
<g id="edge14" class="edge"><title>A8&#45;&gt;A10</title>
<path fill="none" stroke="black" d="M858.481,-379.13C834.728,-309.735 797.983,-202.381 783.831,-161.035"/>
<polygon fill="none" stroke="black" points="858.579,-379.419 864.307,-383.8 862.466,-390.772 856.738,-386.391 858.579,-379.419"/>
<text text-anchor="middle" x="797.698" y="-172.948" font-family="Times,serif" font-size="10.00">1</text>
</g>
<!-- A9 -->
<g id="node10" class="node"><title>A9</title>
<polygon fill="none" stroke="black" points="790.5,-574 790.5,-612 969.5,-612 969.5,-574 790.5,-574"/>
<text text-anchor="middle" x="880" y="-600" font-family="Times,serif" font-size="10.00">LocalBlob</text>
<polyline fill="none" stroke="black" points="790.5,-593 969.5,-593 "/>
<text text-anchor="middle" x="880" y="-581" font-family="Times,serif" font-size="10.00">shared_ptr&lt;detail::LocalBlob&gt;</text>
</g>
<!-- A9&#45;&gt;A8 -->
<g id="edge15" class="edge"><title>A9&#45;&gt;A8</title>
<path fill="none" stroke="black" d="M880,-561.671C880,-542.51 880,-517.267 880,-495.076"/>
<polygon fill="black" stroke="black" points="880,-561.852 884,-567.852 880,-573.852 876,-567.852 880,-561.852"/>
<text text-anchor="middle" x="888.452" y="-510.702" font-family="Times,serif" font-size="10.00">1</text>
</g>
</g>
</svg>
