<?xml version="1.0" encoding="UTF-8" standalone="no"?>
<!DOCTYPE svg PUBLIC "-//W3C//DTD SVG 1.1//EN"
 "http://www.w3.org/Graphics/SVG/1.1/DTD/svg11.dtd">
<!-- Generated by graphviz version 2.36.0 (20140111.2315)
 -->
<!-- Title: G Pages: 1 -->
<svg width="876pt" height="704pt"
 viewBox="0.00 0.00 876.00 704.00" xmlns="http://www.w3.org/2000/svg" xmlns:xlink="http://www.w3.org/1999/xlink">
<g id="graph0" class="graph" transform="scale(1 1) rotate(0) translate(4 700)">
<title>Maidsafe NFS API Design</title>
<polygon fill="white" stroke="none" points="-4,4 -4,-700 872,-700 872,4 -4,4"/>
<!-- A0 -->
<g id="node1" class="node"><title>A0</title>
<polygon fill="none" stroke="black" points="141,-646.5 141,-695.5 357,-695.5 357,-646.5 141,-646.5"/>
<text text-anchor="middle" x="249" y="-683.5" font-family="Times,serif" font-size="10.00">Account</text>
<polyline fill="none" stroke="black" points="141,-676.5 357,-676.5 "/>
<text text-anchor="middle" x="249" y="-664.5" font-family="Times,serif" font-size="10.00">shared_ptr&lt;detail::NetworkInterface&gt;</text>
<text text-anchor="middle" x="249" y="-653.5" font-family="Times,serif" font-size="10.00">Container</text>
</g>
<!-- A2 -->
<g id="node3" class="node"><title>A2</title>
<polygon fill="none" stroke="black" points="369,-530 369,-568 547,-568 547,-530 369,-530"/>
<text text-anchor="middle" x="458" y="-556" font-family="Times,serif" font-size="10.00">Container</text>
<polyline fill="none" stroke="black" points="369,-549 547,-549 "/>
<text text-anchor="middle" x="458" y="-537" font-family="Times,serif" font-size="10.00">shared_ptr&lt;detail::Container&gt;</text>
</g>
<!-- A0&#45;&gt;A2 -->
<g id="edge2" class="edge"><title>A0&#45;&gt;A2</title>
<path fill="none" stroke="black" d="M300.755,-640.284C340.132,-617.676 393.05,-587.292 426.343,-568.177"/>
<polygon fill="black" stroke="black" points="300.698,-640.317 297.487,-646.773 290.292,-646.292 293.503,-639.835 300.698,-640.317"/>
<text text-anchor="middle" x="414.832" y="-582.032" font-family="Times,serif" font-size="10.00">1</text>
</g>
<!-- A10 -->
<g id="node11" class="node"><title>A10</title>
<polygon fill="none" stroke="black" points="0,-248 0,-284 148,-284 148,-248 0,-248"/>
<text text-anchor="middle" x="74" y="-263.5" font-family="Times,serif" font-size="10.00">detail::NetworkInterface</text>
</g>
<!-- A0&#45;&gt;A10 -->
<g id="edge1" class="edge"><title>A0&#45;&gt;A10</title>
<path fill="none" stroke="black" d="M205.158,-639.155C156.544,-601.626 81.9424,-533.127 59,-452 42.0763,-392.156 59.196,-317.396 68.647,-284.225"/>
<polygon fill="none" stroke="black" points="205.243,-639.22 212.441,-639.653 214.81,-646.464 207.612,-646.031 205.243,-639.22"/>
<text text-anchor="middle" x="72.0573" y="-301.432" font-family="Times,serif" font-size="10.00">1</text>
</g>
<!-- A1 -->
<g id="node2" class="node"><title>A1</title>
<polygon fill="none" stroke="black" points="204,-247 204,-285 290,-285 290,-247 204,-247"/>
<text text-anchor="middle" x="247" y="-273" font-family="Times,serif" font-size="10.00">BlobVersion</text>
<polyline fill="none" stroke="black" points="204,-266 290,-266 "/>
<text text-anchor="middle" x="247" y="-254" font-family="Times,serif" font-size="10.00">SHA512</text>
</g>
<!-- A6 -->
<g id="node7" class="node"><title>A6</title>
<polygon fill="none" stroke="black" points="302,-369.5 302,-440.5 672,-440.5 672,-369.5 302,-369.5"/>
<text text-anchor="middle" x="487" y="-428.5" font-family="Times,serif" font-size="10.00">detail::Container</text>
<polyline fill="none" stroke="black" points="302,-421.5 672,-421.5 "/>
<text text-anchor="middle" x="487" y="-409.5" font-family="Times,serif" font-size="10.00">shared_ptr&lt;detail::NetworkInterface&gt;</text>
<text text-anchor="middle" x="487" y="-398.5" font-family="Times,serif" font-size="10.00">vector&lt;ContainerVersion&gt;</text>
<text text-anchor="middle" x="487" y="-387.5" font-family="Times,serif" font-size="10.00">shared_ptr&lt;unordered_map&lt;BlobVersion, weak_ptr&lt;detail::Blob&gt;&gt;&gt;</text>
<text text-anchor="middle" x="487" y="-376.5" font-family="Times,serif" font-size="10.00">unordered_map&lt;ContainerVersion, detail::ContainerInstance&gt;</text>
</g>
<!-- A2&#45;&gt;A6 -->
<g id="edge3" class="edge"><title>A2&#45;&gt;A6</title>
<path fill="none" stroke="black" d="M464.168,-517.797C468.792,-495.155 475.127,-464.134 479.952,-440.513"/>
<polygon fill="none" stroke="black" points="464.133,-517.969 466.852,-524.648 461.732,-529.727 459.013,-523.048 464.133,-517.969"/>
<text text-anchor="middle" x="484.606" y="-457.464" font-family="Times,serif" font-size="10.00">1</text>
</g>
<!-- A3 -->
<g id="node4" class="node"><title>A3</title>
<polygon fill="none" stroke="black" points="756,-248 756,-284 868,-284 868,-248 756,-248"/>
<text text-anchor="middle" x="812" y="-263.5" font-family="Times,serif" font-size="10.00">ContainerVersion</text>
</g>
<!-- A4 -->
<g id="node5" class="node"><title>A4</title>
<polygon fill="none" stroke="black" points="230,-113 230,-173 406,-173 406,-113 230,-113"/>
<text text-anchor="middle" x="318" y="-161" font-family="Times,serif" font-size="10.00">detail::Blob</text>
<polyline fill="none" stroke="black" points="230,-154 406,-154 "/>
<text text-anchor="middle" x="318" y="-142" font-family="Times,serif" font-size="10.00">Metadata</text>
<text text-anchor="middle" x="318" y="-131" font-family="Times,serif" font-size="10.00">Datamap</text>
<text text-anchor="middle" x="318" y="-120" font-family="Times,serif" font-size="10.00">weak_ptr&lt;detail::BlobBuffer&gt;</text>
</g>
<!-- A5 -->
<g id="node6" class="node"><title>A5</title>
<polygon fill="none" stroke="black" points="190,-1 190,-39 304,-39 304,-1 190,-1"/>
<text text-anchor="middle" x="247" y="-27" font-family="Times,serif" font-size="10.00">detail::BlobBuffer</text>
<polyline fill="none" stroke="black" points="190,-20 304,-20 "/>
<text text-anchor="middle" x="247" y="-8" font-family="Times,serif" font-size="10.00">DataBuffer</text>
</g>
<!-- A4&#45;&gt;A5 -->
<g id="edge4" class="edge"><title>A4&#45;&gt;A5</title>
<path fill="none" stroke="black" d="M294.708,-102.306C282.206,-80.9989 267.403,-55.7716 257.639,-39.1313"/>
<polygon fill="none" stroke="black" points="294.74,-102.359 301.226,-105.51 300.813,-112.709 294.326,-109.559 294.74,-102.359"/>
<text text-anchor="middle" x="274.102" y="-47.9872" font-family="Times,serif" font-size="10.00">1</text>
</g>
<!-- A6&#45;&gt;A1 -->
<g id="edge6" class="edge"><title>A6&#45;&gt;A1</title>
<path fill="none" stroke="black" d="M415.736,-363.32C370.267,-337.365 313.552,-304.99 278.824,-285.166"/>
<polygon fill="none" stroke="black" points="416.016,-363.48 423.21,-362.981 426.438,-369.429 419.244,-369.928 416.016,-363.48"/>
<text text-anchor="middle" x="298.756" y="-284.311" font-family="Times,serif" font-size="10.00">0..</text>
</g>
<!-- A6&#45;&gt;A3 -->
<g id="edge8" class="edge"><title>A6&#45;&gt;A3</title>
<path fill="none" stroke="black" d="M580.211,-364.708C643.486,-338.035 724.007,-304.092 771.577,-284.04"/>
<polygon fill="none" stroke="black" points="580.069,-364.768 576.094,-370.784 569.011,-369.429 572.986,-363.413 580.069,-364.768"/>
<text text-anchor="middle" x="758.158" y="-296.369" font-family="Times,serif" font-size="10.00">1..</text>
</g>
<!-- A6&#45;&gt;A4 -->
<g id="edge5" class="edge"><title>A6&#45;&gt;A4</title>
<path fill="none" stroke="black" d="M412.515,-362.561C384.321,-343.037 354.773,-317.14 337,-286 317.027,-251.005 314.724,-203.436 315.725,-173.222"/>
<polygon fill="none" stroke="black" points="412.848,-362.784 420.059,-362.801 422.817,-369.463 415.606,-369.447 412.848,-362.784"/>
<text text-anchor="middle" x="323.821" y="-189.01" font-family="Times,serif" font-size="10.00">0..</text>
</g>
<!-- A7 -->
<g id="node8" class="node"><title>A7</title>
<polygon fill="none" stroke="black" points="346.5,-247 346.5,-285 737.5,-285 737.5,-247 346.5,-247"/>
<text text-anchor="middle" x="542" y="-273" font-family="Times,serif" font-size="10.00">detail::ContainerInstance</text>
<polyline fill="none" stroke="black" points="346.5,-266 737.5,-266 "/>
<text text-anchor="middle" x="542" y="-254" font-family="Times,serif" font-size="10.00">unordered_map&lt;string, variant&lt;shared_ptr&lt;detail::Blob&gt;, DirectoryId&gt;&gt;</text>
</g>
<!-- A6&#45;&gt;A7 -->
<g id="edge7" class="edge"><title>A6&#45;&gt;A7</title>
<path fill="none" stroke="black" d="M505.475,-357.982C515.483,-333.051 527.286,-303.652 534.707,-285.166"/>
<polygon fill="none" stroke="black" points="505.35,-358.293 506.826,-365.351 500.879,-369.429 499.402,-362.371 505.35,-358.293"/>
<text text-anchor="middle" x="535.798" y="-302.636" font-family="Times,serif" font-size="10.00">1..</text>
</g>
<!-- A6&#45;&gt;A10 -->
<g id="edge9" class="edge"><title>A6&#45;&gt;A10</title>
<path fill="none" stroke="black" d="M371.04,-365.534C290.265,-338.739 186.444,-304.3 125.368,-284.04"/>
<polygon fill="none" stroke="black" points="371.393,-365.651 378.347,-363.743 382.783,-369.429 375.828,-371.337 371.393,-365.651"/>
<text text-anchor="middle" x="145.233" y="-279.224" font-family="Times,serif" font-size="10.00">1</text>
</g>
<!-- A7&#45;&gt;A4 -->
<g id="edge10" class="edge"><title>A7&#45;&gt;A4</title>
<path fill="none" stroke="black" d="M497.758,-241.101C461.597,-221.568 410.338,-193.879 371.805,-173.064"/>
<polygon fill="none" stroke="black" points="497.907,-241.182 505.087,-240.514 508.465,-246.885 501.285,-247.553 497.907,-241.182"/>
<text text-anchor="middle" x="391.77" y="-171.742" font-family="Times,serif" font-size="10.00">0..</text>
</g>
<!-- A8 -->
<g id="node9" class="node"><title>A8</title>
<polygon fill="none" stroke="black" points="68,-358.5 68,-451.5 284,-451.5 284,-358.5 68,-358.5"/>
<text text-anchor="middle" x="176" y="-439.5" font-family="Times,serif" font-size="10.00">detail::LocalBlob</text>
<polyline fill="none" stroke="black" points="68,-432.5 284,-432.5 "/>
<text text-anchor="middle" x="176" y="-420.5" font-family="Times,serif" font-size="10.00">shared_ptr&lt;detail::NetworkInterface&gt;</text>
<text text-anchor="middle" x="176" y="-409.5" font-family="Times,serif" font-size="10.00">shared_ptr&lt;detail::BlobBuffer&gt;</text>
<text text-anchor="middle" x="176" y="-398.5" font-family="Times,serif" font-size="10.00">DataMap</text>
<text text-anchor="middle" x="176" y="-387.5" font-family="Times,serif" font-size="10.00">Metadata</text>
<text text-anchor="middle" x="176" y="-376.5" font-family="Times,serif" font-size="10.00">SelfEncryptor</text>
<text text-anchor="middle" x="176" y="-365.5" font-family="Times,serif" font-size="10.00">BlobVersion</text>
</g>
<!-- A8&#45;&gt;A1 -->
<g id="edge11" class="edge"><title>A8&#45;&gt;A1</title>
<path fill="none" stroke="black" d="M205.241,-347.577C216.844,-325.189 229.368,-301.023 237.642,-285.058"/>
<polygon fill="none" stroke="black" points="205.164,-347.727 205.954,-354.894 199.642,-358.381 198.851,-351.213 205.164,-347.727"/>
<text text-anchor="middle" x="236.806" y="-302.54" font-family="Times,serif" font-size="10.00">1</text>
</g>
<!-- A8&#45;&gt;A5 -->
<g id="edge12" class="edge"><title>A8&#45;&gt;A5</title>
<path fill="none" stroke="black" d="M181.931,-346.293C185.267,-316.307 189.805,-279.105 195,-246 204.405,-186.067 206.876,-170.999 221,-112 227.121,-86.4331 235.747,-57.278 241.356,-39.0069"/>
<polygon fill="none" stroke="black" points="181.928,-346.318 185.251,-352.718 180.621,-358.247 177.298,-351.847 181.928,-346.318"/>
<text text-anchor="middle" x="244.15" y="-56.3107" font-family="Times,serif" font-size="10.00">1</text>
</g>
<!-- A8&#45;&gt;A10 -->
<g id="edge13" class="edge"><title>A8&#45;&gt;A10</title>
<path fill="none" stroke="black" d="M134.764,-348.615C117.521,-325.454 98.7299,-300.216 86.68,-284.031"/>
<polygon fill="none" stroke="black" points="134.869,-348.756 141.661,-351.18 142.035,-358.381 135.244,-355.957 134.869,-348.756"/>
<text text-anchor="middle" x="104.284" y="-291.022" font-family="Times,serif" font-size="10.00">1</text>
</g>
<!-- A9 -->
<g id="node10" class="node"><title>A9</title>
<polygon fill="none" stroke="black" points="143.5,-524.5 143.5,-573.5 322.5,-573.5 322.5,-524.5 143.5,-524.5"/>
<text text-anchor="middle" x="233" y="-561.5" font-family="Times,serif" font-size="10.00">LocalBlob</text>
<polyline fill="none" stroke="black" points="143.5,-554.5 322.5,-554.5 "/>
<text text-anchor="middle" x="233" y="-542.5" font-family="Times,serif" font-size="10.00">shared_ptr&lt;detail::LocalBlob&gt;</text>
<text text-anchor="middle" x="233" y="-531.5" font-family="Times,serif" font-size="10.00">shared_ptr&lt;detail::Container&gt;</text>
</g>
<!-- A9&#45;&gt;A6 -->
<g id="edge14" class="edge"><title>A9&#45;&gt;A6</title>
<path fill="none" stroke="black" d="M285.711,-518.532C326.285,-495.849 382.459,-464.444 425.158,-440.573"/>
<polygon fill="none" stroke="black" points="285.702,-518.536 282.417,-524.956 275.228,-524.392 278.513,-517.973 285.702,-518.536"/>
<text text-anchor="middle" x="413.461" y="-454.296" font-family="Times,serif" font-size="10.00">1</text>
</g>
<!-- A9&#45;&gt;A8 -->
<g id="edge15" class="edge"><title>A9&#45;&gt;A8</title>
<path fill="none" stroke="black" d="M218.979,-513.07C211.549,-494.56 202.331,-471.597 194.34,-451.688"/>
<polygon fill="black" stroke="black" points="218.989,-513.096 224.936,-517.174 223.459,-524.232 217.512,-520.154 218.989,-513.096"/>
<text text-anchor="middle" x="208.936" y="-462.861" font-family="Times,serif" font-size="10.00">1</text>
</g>
</g>
</svg>
